<svg version="1.1" xmlns="http://www.w3.org/2000/svg" width="24px" height="24px" viewBox="0 0 968.075 968.075" fill="#584937" 
	 xml:space="preserve">
<g>
	<g>
		<path d="M192.474,436.9c-36.8,36-59.6,86.3-59.6,141.899c0,55.5,22.8,105.801,59.6,141.801c8.101,8,21.2,8,29.301,0
			c36.8-36,59.6-86.301,59.6-141.801c0-55.6-22.9-105.8-59.6-141.8C213.674,428.9,200.575,428.9,192.474,436.9z"/>
		<path d="M389.775,687.101c-55.5,0-105.801,22.8-141.801,59.6c-8,8.1-8,21.2,0,29.3c36.101,36.8,86.301,59.601,141.801,59.601
			c55.6,0,105.8-22.801,141.899-59.601c8-8.2,8-21.2,0-29.3C495.475,709.9,445.275,687.101,389.775,687.101z"/>
		<path d="M335.975,293.4c-36.801,36-59.601,86.3-59.601,141.899c0,55.5,22.8,105.801,59.601,141.801c8.1,8,21.199,8,29.3,0
			c36.8-36,59.6-86.301,59.6-141.801c0-55.6-22.899-105.8-59.6-141.8C357.174,285.4,344.075,285.4,335.975,293.4z"/>
		<path d="M675.075,603.2c-36.1-36.8-86.3-59.6-141.8-59.6s-105.8,22.8-141.8,59.6c-8,8.1-8,21.2,0,29.3
			c36.1,36.8,86.3,59.601,141.8,59.601c55.6,0,105.8-22.801,141.899-59.601C683.075,624.4,683.075,611.4,675.075,603.2z"/>
		<path d="M508.775,150c-8.101-8-21.2-8-29.3,0c-36.801,36-59.601,86.301-59.601,141.9c0,55.5,22.8,105.8,59.601,141.8
			c8.1,8,21.199,8,29.3,0c36.8-36,59.6-86.3,59.6-141.8C568.375,236.2,545.575,186,508.775,150z"/>
		<path d="M676.674,400.101c-55.5,0-105.8,22.8-141.8,59.6c-8,8.1-8,21.2,0,29.3c36.101,36.8,86.3,59.601,141.8,59.601
			c55.601,0,105.801-22.801,141.9-59.601c8-8.2,8-21.2,0-29.3C782.475,423,732.275,400.101,676.674,400.101z"/>
		<path d="M652.275,6.5c-8.101-8-21.2-8-29.3,0c-36.801,36-59.601,86.301-59.601,141.9c0,55.5,22.8,105.8,59.601,141.8
			c8.1,8,21.199,8,29.3,0c36.8-36,59.6-86.3,59.6-141.8C711.875,92.801,688.975,42.5,652.275,6.5z"/>
		<path d="M820.174,256.601c-55.5,0-105.8,22.8-141.8,59.6c-8,8.101-8,21.2,0,29.3c36.101,36.801,86.3,59.601,141.8,59.601
			c55.601,0,105.801-22.8,141.9-59.601c8-8.199,8-21.199,0-29.3C925.975,279.5,875.775,256.7,820.174,256.601z"/>
		<path d="M801.575,61.801c-39.3,39.3-58.6,90.899-58.1,142.5c0.1,11.399,9.3,20.6,20.699,20.699c51.5,0.5,103.2-18.8,142.5-58.1
			c39.301-39.3,58.601-91,58.101-142.5c-0.101-11.4-9.3-20.6-20.7-20.7C892.575,3.2,840.875,22.5,801.575,61.801z"/>
		<path d="M21.474,958.8c11.7,11.7,30.7,11.7,42.4,0l137.7-137.699c11.7-11.7,11.7-30.7,0-42.4l-12.7-12.7
			c-11.7-11.7-30.7-11.7-42.4,0L8.775,903.601c-11.7,11.699-11.7,30.699,0,42.399L21.474,958.8z"/>
	</g>
</g>
</svg>